<svg xmlns="http://www.w3.org/2000/svg" version="1.1" xmlns:xlink="http://www.w3.org/1999/xlink" width="1000" height="1000"><g clip-path="url(#SvgjsClipPath1851)"><rect width="1000" height="1000" fill="#272f41"></rect><g transform="matrix(2.3255813953488373,0,0,2.3255813953488373,151.16279069767438,150)"><svg xmlns="http://www.w3.org/2000/svg" version="1.1" xmlns:xlink="http://www.w3.org/1999/xlink" width="300" height="301"><svg version="1.2" xmlns="http://www.w3.org/2000/svg" viewBox="0 0 300 301" width="300" height="301">
	<title>Tansive-final</title>
	<style>
		.s0 { fill: none } 
		.s1 { fill: #ffffff } 
		.s2 { fill: none;stroke: #ffffff;stroke-miterlimit:100;stroke-width: 37 } 
		.s3 { fill: #446fdf;stroke: #446fdf;stroke-miterlimit:100;stroke-width: 4 } 
	</style>
	<path id="Background" fill-rule="evenodd" class="s0" d="m195.5 258c-57.8 0-104.5-46.7-104.5-104.5 0-57.8 46.7-104.5 104.5-104.5 57.8 0 104.5 46.7 104.5 104.5 0 57.8-46.7 104.5-104.5 104.5z"></path>
	<path id="Tansive" class="s1" aria-label="Tansive" d="m345.9 90.9h55.6v150.1h38v-150.1h55.7v-31.7h-149.3zm194.2 152.7c20.1 0 33.2-8.8 39.9-21.5h1v18.9h35.9v-92c0-32.5-27.5-46.1-57.9-46.1-32.7 0-54.2 15.6-59.4 40.4l35 2.9c2.6-9.1 10.6-15.7 24.2-15.7 12.9 0 20.3 6.5 20.3 17.6v0.6c0 8.8-9.4 9.9-33.1 12.2-26.9 2.5-51.2 11.6-51.2 42 0 27 19.3 40.7 45.3 40.7zm10.8-26.1c-11.6 0-20-5.4-20-15.8 0-10.7 8.8-15.9 22.2-17.8 8.2-1.1 21.7-3.1 26.2-6.1v14.5c0 14.3-11.8 25.2-28.4 25.2zm133.7-55.3c0.1-17.6 10.6-27.9 25.8-27.9 15.2 0 24.4 9.9 24.3 26.6v80.1h37.8v-86.8c0-31.8-18.7-51.3-47.1-51.3-20.2 0-34.9 9.9-41 25.8h-1.6v-24.1h-36v136.4h37.8zm231.6-18.6c-3.4-25.2-23.6-40.7-58.1-40.7-34.9 0-57.9 16.2-57.8 42.4-0.1 20.5 12.8 33.7 39.4 39l23.7 4.7c11.9 2.4 17.3 6.8 17.4 13.6-0.1 8.1-8.9 13.8-22.1 13.8-13.5 0-22.5-5.7-24.8-16.8l-37.2 1.9c3.5 26.1 25.7 42.2 61.9 42.2 35.3 0 60.6-18 60.7-44.9-0.1-19.7-13-31.5-39.4-36.9l-24.7-5c-12.7-2.8-17.4-7.1-17.3-13.7-0.1-8.2 9.1-13.5 20.8-13.5 13.2 0 21 7.2 22.9 16zm27.4 97.5h37.9v-136.4h-37.9zm19-153.9c11.3 0 20.6-8.6 20.6-19.2 0-10.5-9.3-19.1-20.6-19.1-11.1 0-20.4 8.6-20.4 19.1 0 10.6 9.3 19.2 20.4 19.2zm176.7 17.5h-40.1l-28.2 97.6h-1.4l-28.3-97.6h-40l47.7 136.4h42.6zm77.5 139c33.7 0 56.4-16.4 61.8-41.7l-35-2.3c-3.8 10.4-13.6 15.8-26.2 15.8-18.9 0-30.9-12.5-30.9-32.8v-0.1h92.9v-10.4c0-46.4-28.1-69.3-64.1-69.3-40.2 0-66.2 28.5-66.2 70.6 0 43.2 25.7 70.2 67.7 70.2zm-30.3-84.6c0.8-15.5 12.6-27.9 29.4-27.9 16.4 0 27.8 11.7 27.9 27.9z"></path>
	<path id="Shape 1" fill-rule="evenodd" class="s2" d="m147.5 255c-52.3 0-94.5-41.8-94.5-93.5 0-51.7 42.2-93.5 94.5-93.5 52.3 0 94.5 41.8 94.5 93.5 0 51.7-42.2 93.5-94.5 93.5z"></path>
	<path id="Shape 5" fill-rule="evenodd" class="s3" d="m10 18h280c1.1 0 2 0.9 2 2v26c0 1.1-0.9 2-2 2h-280c-1.1 0-2-0.9-2-2v-26c0-1.1 0.9-2 2-2z"></path>
</svg></svg></g></g><defs><clipPath id="SvgjsClipPath1851"><rect width="1000" height="1000" x="0" y="0" rx="250" ry="250"></rect></clipPath></defs></svg>